# xmcd CD database file
# Copyright (C) 1993-1998 Ti Kan
#
# Track frame offsets:
# 150
# 19622
# 36580
# 55822
# 69897
# 81170
# 91777
# 113935
# 131075
# 141480
# 156267
# 169012
# 185282
# 195690
# 223365
# 238852
#
# Disc length: 3380 seconds
# Revision: 0
# Processed by: cddbd v1.4b41PL1 Copyright (c) Steve Scherf et al.
# Submitted via: CDSpectrumPro v3.3.333
#
DISCID=e80d3210
DTITLE=Various Artist - Redgum and the Bushwackers
DYEAR=1900
DGENRE=
TTITLE0=Redgum - I was only nineteen
TTITLE1=Redgum - I've been to Bali too
TTITLE2=Redgum - ASIO
TTITLE3=Redgum - Friday night
TTITLE4=Redgum - Yarralumla wine
TTITLE5=Redgum - Brown rice and kerosene
TTITLE6=Redgum - The spirit of the land
TTITLE7=Redgum - Running with the hurricane
TTITLE8=The Bushwackers Band - Lime juice tub
TTITLE9=The Bushwackers Band - Lachlan tigers
TTITLE10=The Bushwackers Band - Flashjack
TTITLE11=The Bushwackers Band - Marijuana Australiana
TTITLE12=The Bushwackers Band - South Australia
TTITLE13=The Bushwackers Band - The band played Waltzing Matilda
TTITLE14=The Bushwackers Band - Lazy Harry's
TTITLE15=The Bushwackers Band - Waltzing Matilda
EXTD=
EXTT0=
EXTT1=
EXTT2=
EXTT3=
EXTT4=
EXTT5=
EXTT6=
EXTT7=
EXTT8=
EXTT9=
EXTT10=
EXTT11=
EXTT12=
EXTT13=
EXTT14=
EXTT15=
PLAYORDER=
